<svg xmlns="http://www.w3.org/2000/svg" viewBox="0 0 46.16 50.98" id="linkedin">
  <defs>
    <linearGradient id="a" x1="-.95" x2="47.12" y1="21.25" y2="29.73" gradientUnits="userSpaceOnUse">
      <stop offset="0" stop-color="#007bb8"></stop>
      <stop offset="1" stop-color="#0044e9"></stop>
    </linearGradient>
  </defs>
  <g style="isolation:isolate">
    <g>
      <g>
        <g>
          <path fill="url(#a)" d="M46.16,16.5v18c0,2.67-1.43,5.15-3.74,6.48l-14.6,8.43-.08.05-.87.5-.05.03c-2.31,1.33-5.17,1.33-7.48,0l-15.59-9.01c-2.32-1.33-3.75-3.81-3.75-6.48v-18c0-2.68,1.43-5.15,3.75-6.49L19.34,1.01c2.31-1.34,5.17-1.34,7.48,0l15.6,9c2.31,1.34,3.74,3.81,3.74,6.49Z"></path>
          <path fill="#126bc4" d="M46.16,33.34v1.16c0,2.67-1.43,5.15-3.74,6.48l-14.6,8.43-.08.05-.87.5c-4.99-5.04-12.34-12.56-13.56-13.61v-15.57h3.39s-.03-.04-.05-.05c-.05-.05-.09-.09-.13-.14-.05-.04-.1-.09-.14-.13-.85-.85-1.71-1.71-2.56-2.56-.55-.51-.89-1.24-.89-2.05,0-1.54,1.25-2.8,2.81-2.8.8,0,1.53.35,2.04.9,2.2,2.19,4.4,4.39,6.6,6.59.04.05.09.09.13.14.04.03.08.07.11.1h1.21v.14h.14v.13h.13v.14h.14v.13h.13v.14h.14v.13h.13v.14h.14v.07c.83-.78,2.07-1.4,3.7-1.4,1.92,0,3.22.5,4.1,1.36,1.71,1.7,5.71,5.71,7.42,7.41.04.05.08.09.13.14.02.02,1.86,1.86,4.03,4.03Z" style="mix-blend-mode:multiply"></path>
          <g>
            <path fill="#fff" d="M13.31 20.86h4.85v15.56h-4.85v-15.56zM15.74 13.13c1.55 0 2.8 1.26 2.8 2.8s-1.26 2.81-2.8 2.81-2.81-1.26-2.81-2.81 1.26-2.8 2.81-2.8M21.19 20.86h4.64v2.13h.06c.65-1.22 2.23-2.51 4.58-2.51 4.9 0 5.8 3.22 5.8 7.41v8.54h-4.83v-7.57c0-1.81-.04-4.13-2.51-4.13s-2.9 1.97-2.9 4v7.7h-4.84v-15.56z"></path>
          </g>
        </g>
      </g>
    </g>
  </g>
</svg>
